<svg id="Grupo_55" data-name="Grupo 55" xmlns="http://www.w3.org/2000/svg" xmlns:xlink="http://www.w3.org/1999/xlink" width="166.626" height="41.659" viewBox="0 0 166.626 41.659">
  <defs>
    <clipPath id="clip-path">
      <rect id="Rectángulo_7" data-name="Rectángulo 7" width="166.626" height="41.659" fill="none"/>
    </clipPath>
  </defs>
  <path id="Trazado_157" data-name="Trazado 157" d="M134.427,34.867H131.6l-1.291-2.476-3.087-5.942-3.087,5.942-1.291,2.476h-2.825l1.291-2.476L127.223,21l5.912,11.39Z" transform="translate(-64.465 -11.28)" fill="#fff"/>
  <g id="Grupo_54" data-name="Grupo 54">
    <g id="Grupo_53" data-name="Grupo 53" clip-path="url(#clip-path)">
      <path id="Trazado_158" data-name="Trazado 158" d="M151.977,27.932a4.506,4.506,0,0,0,4.54,4.457h4.54V29.735h-4.539V27.259h7.063v7.607h-7.063A6.935,6.935,0,0,1,156.262,21q.128,0,.256,0h7.063v2.476h-7.063a4.506,4.506,0,0,0-4.54,4.457" transform="translate(-80.276 -11.278)" fill="#fff"/>
      <path id="Trazado_159" data-name="Trazado 159" d="M195.715,32.434l1.291,2.476H194.18l-1.291-2.476-1.352-2.6-.061-.119a2.509,2.509,0,0,0-2.139-1.188h-2.522V34.91h-2.522V21.044h8.919a3.817,3.817,0,0,1,2.684,1.089,3.727,3.727,0,0,1-1.11,6.062,3.415,3.415,0,0,1-1.09.3Zm-2.5-6.379a1.177,1.177,0,0,0,.524-.119,1.258,1.258,0,0,0-.492-2.416h-6.429v2.556Z" transform="translate(-98.987 -11.303)" fill="#fff"/>
      <rect id="Rectángulo_5" data-name="Rectángulo 5" width="2.522" height="13.867" transform="translate(100.061 9.721)" fill="#fff"/>
      <rect id="Rectángulo_6" data-name="Rectángulo 6" width="2.522" height="13.867" transform="translate(104.603 9.721)" fill="#fff"/>
      <path id="Trazado_160" data-name="Trazado 160" d="M237.881,27.932a4.506,4.506,0,0,0,4.54,4.457h7.063v2.476H242.42A6.935,6.935,0,0,1,242.165,21q.128,0,.256,0h7.063v2.476H242.42a4.505,4.505,0,0,0-4.54,4.457" transform="translate(-126.416 -11.278)" fill="#fff"/>
      <path id="Trazado_161" data-name="Trazado 161" d="M281.356,27.933A7.064,7.064,0,1,1,274.162,21h.132a7.007,7.007,0,0,1,7.062,6.934m-2.522,0a4.541,4.541,0,1,0-4.625,4.456h.085A4.506,4.506,0,0,0,278.834,27.933Z" transform="translate(-143.534 -11.279)" fill="#fff"/>
      <path id="Trazado_162" data-name="Trazado 162" d="M312.671,32.434V34.91h-7.164a4.479,4.479,0,0,1-4.016-2.476,4.243,4.243,0,0,1-.464-1.941V21.043h2.522V30.73a1.993,1.993,0,0,0,1.715,1.684Z" transform="translate(-161.688 -11.303)" fill="#fff"/>
      <path id="Trazado_163" data-name="Trazado 163" d="M343.256,34.867h-2.825l-1.291-2.476-3.087-5.942-3.087,5.942-1.291,2.476h-2.825l1.291-2.476L336.052,21l5.913,11.39Z" transform="translate(-176.631 -11.28)" fill="#fff"/>
      <path id="Trazado_164" data-name="Trazado 164" d="M120.476,60.143l1.5,3.569,1.509-3.569h.459v4.044H123.6V62.426l.028-1.805-1.518,3.566h-.266l-1.512-3.553.028,1.781v1.772h-.344V60.143Z" transform="translate(-64.465 -32.304)" fill="#fff"/>
      <path id="Trazado_165" data-name="Trazado 165" d="M132.99,62.248h-1.907V63.9h2.193v.289h-2.537V60.142h2.523v.289h-2.179v1.528h1.907Z" transform="translate(-70.222 -32.304)" fill="#fff"/>
      <path id="Trazado_166" data-name="Trazado 166" d="M139.217,60.143h.347v2.842a1.254,1.254,0,0,1-.335.917,1.2,1.2,0,0,1-.9.342,1.26,1.26,0,0,1-.912-.308,1.141,1.141,0,0,1-.319-.861h.344a.868.868,0,0,0,.232.66.913.913,0,0,0,.655.221.84.84,0,0,0,.635-.256.979.979,0,0,0,.25-.694Z" transform="translate(-73.638 -32.304)" fill="#fff"/>
      <path id="Trazado_167" data-name="Trazado 167" d="M147.422,62.32a2.325,2.325,0,0,1-.194.98,1.478,1.478,0,0,1-.556.65,1.537,1.537,0,0,1-.835.228,1.453,1.453,0,0,1-1.153-.507,2.016,2.016,0,0,1-.44-1.368v-.417a2.305,2.305,0,0,1,.2-.979,1.5,1.5,0,0,1,.558-.655,1.633,1.633,0,0,1,1.662,0,1.478,1.478,0,0,1,.556.636,2.277,2.277,0,0,1,.2.953Zm-.344-.439a1.777,1.777,0,0,0-.333-1.144,1.2,1.2,0,0,0-1.7-.118,1.221,1.221,0,0,0-.119.12,1.791,1.791,0,0,0-.338,1.16v.422a1.781,1.781,0,0,0,.336,1.14,1.206,1.206,0,0,0,1.7.13,1.222,1.222,0,0,0,.125-.125,1.823,1.823,0,0,0,.327-1.157Z" transform="translate(-77.474 -32.24)" fill="#fff"/>
      <path id="Trazado_168" data-name="Trazado 168" d="M154.5,62.5h-1.184v1.686h-.348V60.139h1.325a1.52,1.52,0,0,1,1.019.314,1.191,1.191,0,0,1,.137,1.562,1.176,1.176,0,0,1-.616.411l1.019,1.722v.036h-.367Zm-1.184-.289h1.055a.981.981,0,0,0,.7-.245.92.92,0,0,0-.011-1.3,1.145,1.145,0,0,0-.77-.237h-.971Z" transform="translate(-82.163 -32.3)" fill="#fff"/>
      <path id="Trazado_169" data-name="Trazado 169" d="M163.1,62.248H161.2V63.9h2.193v.289h-2.537V60.142h2.523v.289H161.2v1.528H163.1Z" transform="translate(-86.398 -32.304)" fill="#fff"/>
      <path id="Trazado_170" data-name="Trazado 170" d="M168.357,60.143l1.5,3.569,1.509-3.569h.459v4.044h-.345V62.426l.028-1.805L170,64.187h-.266l-1.512-3.553.028,1.781v1.772H167.9V60.143Z" transform="translate(-90.183 -32.304)" fill="#fff"/>
      <path id="Trazado_171" data-name="Trazado 171" d="M181.438,62.32a2.325,2.325,0,0,1-.194.98,1.478,1.478,0,0,1-.556.65,1.537,1.537,0,0,1-.835.228,1.453,1.453,0,0,1-1.154-.507,2.016,2.016,0,0,1-.44-1.368v-.417a2.306,2.306,0,0,1,.2-.979,1.5,1.5,0,0,1,.558-.655,1.633,1.633,0,0,1,1.662,0,1.478,1.478,0,0,1,.556.636,2.276,2.276,0,0,1,.2.953Zm-.344-.439a1.777,1.777,0,0,0-.333-1.144,1.2,1.2,0,0,0-1.7-.118,1.169,1.169,0,0,0-.119.12,1.791,1.791,0,0,0-.338,1.16v.422a1.781,1.781,0,0,0,.336,1.14,1.206,1.206,0,0,0,1.7.13,1.273,1.273,0,0,0,.125-.125,1.826,1.826,0,0,0,.328-1.157Z" transform="translate(-95.745 -32.24)" fill="#fff"/>
      <path id="Trazado_172" data-name="Trazado 172" d="M189,63.127a.651.651,0,0,0-.238-.532,2.52,2.52,0,0,0-.871-.372,3.069,3.069,0,0,1-.924-.385.929.929,0,0,1-.029-1.527,1.588,1.588,0,0,1,.984-.29,1.645,1.645,0,0,1,.726.156,1.183,1.183,0,0,1,.5.433,1.133,1.133,0,0,1,.176.619h-.347a.846.846,0,0,0-.286-.667,1.117,1.117,0,0,0-.767-.252,1.213,1.213,0,0,0-.745.207.645.645,0,0,0-.277.541.611.611,0,0,0,.249.5,2.314,2.314,0,0,0,.8.343,3.762,3.762,0,0,1,.832.309,1.18,1.18,0,0,1,.426.382.954.954,0,0,1,.143.525.912.912,0,0,1-.385.767,1.649,1.649,0,0,1-1.016.289,2,2,0,0,1-.791-.153,1.206,1.206,0,0,1-.546-.428,1.1,1.1,0,0,1-.186-.63h.344a.8.8,0,0,0,.321.675,1.374,1.374,0,0,0,.857.247,1.277,1.277,0,0,0,.764-.208.65.65,0,0,0,.289-.553" transform="translate(-100.132 -32.238)" fill="#fff"/>
      <path id="Trazado_173" data-name="Trazado 173" d="M199.607,62.248H197.7V63.9h2.193v.289h-2.537V60.142h2.523v.289H197.7v1.528h1.907Z" transform="translate(-106.004 -32.304)" fill="#fff"/>
      <path id="Trazado_174" data-name="Trazado 174" d="M204.75,63.9h2.013v.289H204.4V60.143h.347Z" transform="translate(-109.788 -32.304)" fill="#fff"/>
      <path id="Trazado_175" data-name="Trazado 175" d="M216.655,62.856a1.443,1.443,0,0,1-.461.978,1.53,1.53,0,0,1-1.04.339,1.442,1.442,0,0,1-.8-.225,1.468,1.468,0,0,1-.539-.637,2.264,2.264,0,0,1-.193-.943v-.525a2.279,2.279,0,0,1,.191-.956,1.454,1.454,0,0,1,.548-.643,1.5,1.5,0,0,1,.822-.226,1.356,1.356,0,0,1,1.471,1.232c0,.029,0,.058.005.087h-.347a1.035,1.035,0,0,0-1.034-1.035.922.922,0,0,0-.094,0,1.072,1.072,0,0,0-.883.411,1.774,1.774,0,0,0-.329,1.137v.495a1.784,1.784,0,0,0,.32,1.117,1.036,1.036,0,0,0,.867.417,1.15,1.15,0,0,0,.815-.257,1.226,1.226,0,0,0,.339-.771Z" transform="translate(-114.739 -32.233)" fill="#fff"/>
      <path id="Trazado_176" data-name="Trazado 176" d="M223.687,63.051h-1.851l-.42,1.136h-.362l1.543-4.044h.328l1.543,4.044h-.359Zm-1.745-.289h1.635l-.818-2.2Z" transform="translate(-118.733 -32.304)" fill="#fff"/>
      <path id="Trazado_177" data-name="Trazado 177" d="M230.182,60.143l1.5,3.569,1.509-3.569h.459v4.044h-.345V62.426l.028-1.805-1.518,3.566h-.266l-1.512-3.553.028,1.781v1.772h-.344V60.143Z" transform="translate(-123.39 -32.304)" fill="#fff"/>
      <path id="Trazado_178" data-name="Trazado 178" d="M240.789,62.537v1.647h-.344V60.139h1.388a1.476,1.476,0,0,1,1,.322,1.26,1.26,0,0,1,.014,1.765,1.515,1.515,0,0,1-1.027.31Zm0-.289h1.044a1.106,1.106,0,0,0,.764-.236.841.841,0,0,0,.263-.66.88.88,0,0,0-.262-.669,1.054,1.054,0,0,0-.744-.255h-1.066Z" transform="translate(-129.147 -32.301)" fill="#fff"/>
      <path id="Trazado_179" data-name="Trazado 179" d="M250.891,62.32a2.326,2.326,0,0,1-.194.98,1.478,1.478,0,0,1-.556.65,1.537,1.537,0,0,1-.835.228,1.453,1.453,0,0,1-1.154-.507,2.016,2.016,0,0,1-.44-1.368v-.417a2.305,2.305,0,0,1,.2-.979,1.5,1.5,0,0,1,.558-.655,1.633,1.633,0,0,1,1.662,0,1.478,1.478,0,0,1,.556.636,2.277,2.277,0,0,1,.2.953Zm-.344-.439a1.774,1.774,0,0,0-.333-1.144,1.2,1.2,0,0,0-1.7-.118,1.166,1.166,0,0,0-.119.12,1.79,1.79,0,0,0-.338,1.16v.422a1.78,1.78,0,0,0,.336,1.14,1.206,1.206,0,0,0,1.7.13,1.223,1.223,0,0,0,.125-.125,1.826,1.826,0,0,0,.328-1.157Z" transform="translate(-133.05 -32.24)" fill="#fff"/>
      <path id="Trazado_180" data-name="Trazado 180" d="M262.183,62.856a1.443,1.443,0,0,1-.461.978,1.527,1.527,0,0,1-1.04.339,1.442,1.442,0,0,1-.8-.225,1.468,1.468,0,0,1-.539-.637,2.265,2.265,0,0,1-.193-.943v-.525a2.283,2.283,0,0,1,.191-.955,1.454,1.454,0,0,1,.548-.643,1.5,1.5,0,0,1,.822-.226,1.356,1.356,0,0,1,1.471,1.232c0,.029,0,.058.005.087h-.347A1.034,1.034,0,0,0,260.8,60.3q-.047,0-.094,0a1.072,1.072,0,0,0-.883.412,1.776,1.776,0,0,0-.329,1.137v.495a1.788,1.788,0,0,0,.321,1.117,1.036,1.036,0,0,0,.867.417,1.155,1.155,0,0,0,.815-.257,1.227,1.227,0,0,0,.339-.771Z" transform="translate(-139.193 -32.234)" fill="#fff"/>
      <path id="Trazado_181" data-name="Trazado 181" d="M270.334,62.32a2.326,2.326,0,0,1-.194.98,1.477,1.477,0,0,1-.556.65,1.537,1.537,0,0,1-.835.228,1.453,1.453,0,0,1-1.154-.507,2.016,2.016,0,0,1-.44-1.368v-.417a2.305,2.305,0,0,1,.2-.979,1.5,1.5,0,0,1,.558-.655,1.633,1.633,0,0,1,1.662,0,1.475,1.475,0,0,1,.556.636,2.276,2.276,0,0,1,.2.953Zm-.344-.439a1.777,1.777,0,0,0-.333-1.144,1.2,1.2,0,0,0-1.7-.118,1.171,1.171,0,0,0-.119.12,1.79,1.79,0,0,0-.338,1.16v.422a1.78,1.78,0,0,0,.336,1.14,1.206,1.206,0,0,0,1.7.13,1.228,1.228,0,0,0,.125-.125,1.826,1.826,0,0,0,.328-1.157Z" transform="translate(-143.493 -32.24)" fill="#fff"/>
      <path id="Trazado_182" data-name="Trazado 182" d="M278.935,64.187h-.344l-2.343-3.461v3.461H275.9V60.143h.347l2.346,3.464V60.143h.341Z" transform="translate(-148.191 -32.304)" fill="#fff"/>
      <path id="Trazado_183" data-name="Trazado 183" d="M289.8,60.432h-1.4v3.755h-.344V60.432h-1.395v-.289H289.8Z" transform="translate(-153.974 -32.304)" fill="#fff"/>
      <path id="Trazado_184" data-name="Trazado 184" d="M297.117,62.248H295.21V63.9H297.4v.289h-2.537V60.142h2.523v.289H295.21v1.528h1.907Z" transform="translate(-158.378 -32.304)" fill="#fff"/>
      <path id="Trazado_185" data-name="Trazado 185" d="M304.626,62.856a1.443,1.443,0,0,1-.461.978,1.53,1.53,0,0,1-1.04.339,1.441,1.441,0,0,1-.8-.225,1.469,1.469,0,0,1-.539-.637,2.264,2.264,0,0,1-.193-.943v-.525a2.278,2.278,0,0,1,.191-.956,1.456,1.456,0,0,1,.548-.643,1.5,1.5,0,0,1,.822-.226,1.356,1.356,0,0,1,1.471,1.232c0,.029,0,.058.005.087h-.347a1.035,1.035,0,0,0-1.034-1.035.921.921,0,0,0-.094,0,1.072,1.072,0,0,0-.883.411,1.773,1.773,0,0,0-.329,1.137v.495a1.784,1.784,0,0,0,.32,1.117,1.036,1.036,0,0,0,.867.417,1.15,1.15,0,0,0,.815-.257,1.226,1.226,0,0,0,.339-.771Z" transform="translate(-161.99 -32.233)" fill="#fff"/>
      <path id="Trazado_186" data-name="Trazado 186" d="M312.994,64.187h-.344l-2.344-3.461v3.461h-.347V60.143h.347l2.346,3.464V60.143h.342Z" transform="translate(-166.485 -32.304)" fill="#fff"/>
      <path id="Trazado_187" data-name="Trazado 187" d="M321.572,62.32a2.325,2.325,0,0,1-.194.98,1.478,1.478,0,0,1-.556.65,1.537,1.537,0,0,1-.835.228,1.453,1.453,0,0,1-1.154-.507,2.016,2.016,0,0,1-.44-1.368v-.417a2.306,2.306,0,0,1,.2-.979,1.5,1.5,0,0,1,.558-.655,1.633,1.633,0,0,1,1.662,0,1.478,1.478,0,0,1,.556.636,2.277,2.277,0,0,1,.2.953Zm-.344-.439a1.774,1.774,0,0,0-.333-1.144,1.2,1.2,0,0,0-1.7-.118,1.165,1.165,0,0,0-.119.12,1.79,1.79,0,0,0-.338,1.16v.422a1.782,1.782,0,0,0,.336,1.14,1.206,1.206,0,0,0,1.7.13,1.225,1.225,0,0,0,.125-.125,1.826,1.826,0,0,0,.328-1.157Z" transform="translate(-171.014 -32.24)" fill="#fff"/>
      <path id="Trazado_188" data-name="Trazado 188" d="M327.486,63.9H329.5v.289h-2.36V60.143h.347Z" transform="translate(-175.712 -32.304)" fill="#fff"/>
      <path id="Trazado_189" data-name="Trazado 189" d="M336.091,62.32a2.326,2.326,0,0,1-.194.98,1.478,1.478,0,0,1-.556.65,1.537,1.537,0,0,1-.835.228,1.453,1.453,0,0,1-1.154-.507,2.016,2.016,0,0,1-.44-1.368v-.417a2.305,2.305,0,0,1,.2-.979,1.5,1.5,0,0,1,.558-.655,1.633,1.633,0,0,1,1.662,0,1.479,1.479,0,0,1,.556.636,2.277,2.277,0,0,1,.2.953Zm-.344-.439a1.777,1.777,0,0,0-.333-1.144,1.2,1.2,0,0,0-1.7-.118,1.168,1.168,0,0,0-.119.12,1.791,1.791,0,0,0-.338,1.16v.422a1.781,1.781,0,0,0,.336,1.14,1.206,1.206,0,0,0,1.7.13,1.225,1.225,0,0,0,.125-.125,1.826,1.826,0,0,0,.328-1.157Z" transform="translate(-178.812 -32.24)" fill="#fff"/>
      <path id="Trazado_190" data-name="Trazado 190" d="M344.469,63.64a1.153,1.153,0,0,1-.561.394,2.448,2.448,0,0,1-.855.142,1.594,1.594,0,0,1-.851-.228,1.518,1.518,0,0,1-.577-.644,2.164,2.164,0,0,1-.207-.955v-.511a1.944,1.944,0,0,1,.428-1.329A1.456,1.456,0,0,1,343,60.021a1.535,1.535,0,0,1,1.013.318,1.308,1.308,0,0,1,.457.876h-.344a1.048,1.048,0,0,0-.366-.676,1.182,1.182,0,0,0-.758-.23,1.11,1.11,0,0,0-.9.4,1.738,1.738,0,0,0-.333,1.137v.478a1.984,1.984,0,0,0,.158.816,1.25,1.25,0,0,0,.454.549,1.209,1.209,0,0,0,.679.194,1.912,1.912,0,0,0,.764-.139.826.826,0,0,0,.308-.214V62.49H343.03V62.2h1.439Z" transform="translate(-183.38 -32.237)" fill="#fff"/>
      <path id="Trazado_191" data-name="Trazado 191" d="M350.769,57.736h.406l-.647.778h-.294Zm-.165,5.158h-.344V58.85h.344Z" transform="translate(-188.117 -31.011)" fill="#fff"/>
      <path id="Trazado_192" data-name="Trazado 192" d="M355.231,63.051h-1.851l-.42,1.136H352.6l1.543-4.044h.328l1.543,4.044h-.359Zm-1.745-.289h1.635l-.818-2.2Z" transform="translate(-189.387 -32.304)" fill="#fff"/>
      <path id="Trazado_193" data-name="Trazado 193" d="M41.659,20.379a20.147,20.147,0,0,1-7.1,15.328q-.065-.412-.155-.815A17.685,17.685,0,0,0,39.188,22.8,18.163,18.163,0,0,0,20.83,4.836,18.162,18.162,0,0,0,2.471,22.8a17.687,17.687,0,0,0,4.786,12.1q-.089.4-.154.815A20.145,20.145,0,0,1,0,20.379,20.607,20.607,0,0,1,20.83,0a20.608,20.608,0,0,1,20.83,20.379" fill="#fff"/>
      <path id="Trazado_194" data-name="Trazado 194" d="M43.74,63.971A10.3,10.3,0,0,1,42.325,69.2a9.045,9.045,0,0,1-.772-1.3,9.037,9.037,0,0,0-.783-9.167h0a9.17,9.17,0,0,0-.645-.805q-.141-.156-.288-.306a9.066,9.066,0,0,0-1.28-1.079,10.753,10.753,0,0,1,1.668-.334h0q.35.308.67.645c.188.2.37.4.541.617.036.044.07.087.1.131a10.313,10.313,0,0,1,2.2,6.377" transform="translate(-20.709 -30.187)" fill="#005586"/>
      <path id="Trazado_195" data-name="Trazado 195" d="M37.868,87.646q.919.158,1.865.227a10.2,10.2,0,0,0,.8-.761,11.371,11.371,0,0,1-.772-1.072,9.113,9.113,0,0,1-1.9,1.605" transform="translate(-20.34 -46.214)" fill="#005586"/>
      <path id="Trazado_196" data-name="Trazado 196" d="M45.793,73.23q-.923.16-1.874.231a10.2,10.2,0,0,1-.8-.76c-.227-.238-.443-.488-.646-.748a10.485,10.485,0,0,1-.771-1.13,10.353,10.353,0,0,1-.007-10.481h0a10.37,10.37,0,0,1,.769-1.131,10.213,10.213,0,0,1,.777,1.14A9.056,9.056,0,0,0,45.793,73.23" transform="translate(-21.63 -31.803)" fill="#fff"/>
      <path id="Trazado_197" data-name="Trazado 197" d="M47.063,56.2q-.348.308-.667.644.271.334.517.688c.089.128.176.259.26.392q.142-.158.29-.309a9.315,9.315,0,0,1,1.275-1.079,10.857,10.857,0,0,0-1.674-.336" transform="translate(-24.92 -30.186)" fill="#fff"/>
      <path id="Trazado_198" data-name="Trazado 198" d="M43.922,33.132H41.287l-1.2-2.3L37.2,25.3l-2.88,5.53-1.2,2.3H30.482l1.2-2.3,5.515-10.6,5.515,10.6Z" transform="translate(-16.373 -10.865)" fill="#fff"/>
      <path id="Trazado_199" data-name="Trazado 199" d="M44.651,41.324l-1.085-1.876L42.48,37.572l-1.085,1.877-1.086,1.876h1.047l.53,1.776.595,1.994.595-1.994.53-1.776Z" transform="translate(-21.651 -20.18)" fill="#fff"/>
    </g>
  </g>
</svg>
