<svg id="Capa_1" data-name="Capa 1" xmlns="http://www.w3.org/2000/svg" viewBox="0 0 200 120"><defs><style>.cls-1{fill:#333233;}.cls-2{fill:none;}.cls-3{fill:#898b8b;}.cls-4{fill:#3f4040;}.cls-5{fill:#028137;}.cls-6{fill:#005587;}</style></defs><title>agrii_logo</title><path class="cls-1" d="M25.943,119.964H20.856l-2.325-4.458-5.56-10.7-5.559,10.7-2.325,4.458H0l2.325-4.458L12.971,95l10.646,20.506Z"/><path class="cls-1" d="M29.074,107.482a8.113,8.113,0,0,0,8.175,8.024h8.176v-4.778H37.249V106.27H49.967v13.694H37.249a12.484,12.484,0,1,1,0-24.964H49.967v4.458H37.249A8.113,8.113,0,0,0,29.074,107.482Z"/><path class="cls-1" d="M74.137,115.542,76.463,120H71.376l-2.325-4.458-2.435-4.672-.109-.214a4.518,4.518,0,0,0-3.851-2.14H58.114V120H53.572V95.036h16.06A6.875,6.875,0,0,1,74.464,97a6.708,6.708,0,0,1-2,10.913,6.158,6.158,0,0,1-1.962.535Zm-4.5-11.484a2.163,2.163,0,0,0,.945-.213,2.265,2.265,0,0,0,1.38-2.069,2.332,2.332,0,0,0-.69-1.64,2.309,2.309,0,0,0-1.635-.642H58.114v4.6Z"/><path class="cls-1" d="M80.141,119.964V95h4.541v24.964Z"/><path class="cls-1" d="M88.318,119.964V95H92.86v24.964Z"/><path class="cls-1" d="M100.674,107.482a8.113,8.113,0,0,0,8.175,8.024h12.717v4.458H108.849a12.484,12.484,0,1,1,0-24.964h12.717v4.458H108.849A8.113,8.113,0,0,0,100.674,107.482Z"/><path class="cls-1" d="M148.135,107.482A12.719,12.719,0,1,1,135.418,95,12.615,12.615,0,0,1,148.135,107.482Zm-4.542,0a8.176,8.176,0,1,0-8.175,8.024A8.112,8.112,0,0,0,143.593,107.482Z"/><path class="cls-1" d="M171.834,115.542V120h-12.9a8.064,8.064,0,0,1-7.231-4.458,7.638,7.638,0,0,1-.835-3.5V95.036h4.542v17.439a3.589,3.589,0,0,0,3.088,3.031Z"/><path class="cls-1" d="M200,119.964h-5.087l-2.325-4.458-5.559-10.7-5.56,10.7-2.325,4.458h-5.087l2.326-4.458L187.029,95l10.646,20.506Z"/><rect class="cls-2" x="60" width="80" height="80"/><polygon class="cls-3" points="106.4 38.501 103.695 38.501 100 44.882 96.304 38.501 93.6 38.501 100 32.121 106.4 38.501"/><polygon class="cls-4" points="116.828 38.501 111.085 38.501 102.517 29.611 100 26.998 97.483 29.611 88.915 38.501 83.171 38.501 92.652 24.795 100 14.174 107.347 24.795 116.828 38.501"/><path class="cls-5" d="M140,40.054A39.983,39.983,0,0,1,126.359,70.18q-.124-.809-.3-1.6a35.254,35.254,0,1,0-52.126,0q-.171.792-.3,1.6A40.03,40.03,0,1,1,140,40.054Z"/><path class="cls-6" d="M104.532,63.75a21.29,21.29,0,0,1-2.913,10.784,18.7,18.7,0,0,1-1.59-2.692,18.669,18.669,0,0,0-1.612-18.917v0a19.154,19.154,0,0,0-1.329-1.662q-.29-.323-.593-.631A18.83,18.83,0,0,0,93.859,48.4a22.166,22.166,0,0,1,3.434-.689h0q.72.634,1.378,1.331c.388.41.762.835,1.115,1.274.073.089.144.179.215.27a21.292,21.292,0,0,1,4.529,13.16Z"/><path class="cls-6" d="M93.2,79.531q1.891.327,3.841.469A21.263,21.263,0,0,0,98.7,78.431a23.453,23.453,0,0,1-1.59-2.212A18.753,18.753,0,0,1,93.2,79.531Z"/><path class="cls-5" d="M106.863,79.519q-1.9.331-3.858.478a21.455,21.455,0,0,1-1.653-1.567q-.7-.74-1.331-1.544a21.511,21.511,0,0,1-1.588-2.332,21.41,21.41,0,0,1-.016-21.629v0A21.461,21.461,0,0,1,100,50.59a21.236,21.236,0,0,1,1.6,2.351,18.706,18.706,0,0,0,5.26,26.578Z"/><path class="cls-5" d="M102.7,47.714q-.715.635-1.373,1.33.558.689,1.064,1.42c.182.264.361.534.534.808q.292-.327.6-.638a19.065,19.065,0,0,1,2.626-2.227A22.171,22.171,0,0,0,102.7,47.714Z"/></svg>